<?xml version="1.0" standalone="no"?>
<!DOCTYPE svg PUBLIC "-//W3C//DTD SVG 20010904//EN"
 "http://www.w3.org/TR/2001/REC-SVG-20010904/DTD/svg10.dtd">
<svg version="1.0" xmlns="http://www.w3.org/2000/svg"
 width="768.000000pt" height="768.000000pt" viewBox="0 0 768.000000 768.000000"
 preserveAspectRatio="xMidYMid meet">
<metadata>
Created by potrace 1.11, written by Peter Selinger 2001-2013
</metadata>
<g transform="translate(0.000000,768.000000) scale(0.100000,-0.100000)"
fill="#000000" stroke="none">
<path d="M3616 6643 c-2 -3 -10 -6 -18 -7 -121 -21 -258 -128 -317 -247 -36
-73 -40 -90 -48 -176 -6 -64 12 -189 28 -199 5 -3 7 -9 4 -14 -3 -4 2 -13 10
-20 8 -7 15 -18 15 -25 0 -23 76 -110 128 -149 l51 -37 0 -562 c0 -309 0 -570
1 -580 0 -16 16 -17 228 -15 l227 3 0 575 1 575 54 55 c61 61 66 68 110 160
45 94 74 189 72 235 -4 96 -71 240 -136 298 -50 44 -144 99 -195 113 -49 15
-205 27 -215 17z"/>
<path d="M1909 4365 c-3 -2 -22 -6 -43 -9 -62 -8 -182 -73 -240 -131 -74 -73
-133 -182 -151 -280 -11 -60 -6 -2230 5 -2230 1 0 3 -11 6 -25 5 -30 46 -124
57 -128 4 -2 7 -10 7 -18 0 -8 5 -14 10 -14 6 0 10 -5 10 -12 0 -20 108 -114
169 -147 124 -66 11 -62 1955 -62 1122 0 1779 3 1811 10 53 10 88 22 145 49
46 22 64 36 133 105 62 61 118 164 133 242 9 49 11 2186 1 2237 -11 57 -45
141 -78 192 -34 51 -135 146 -156 146 -7 0 -13 3 -13 8 0 10 -74 42 -138 59
-29 8 -3615 16 -3623 8z m726 -1116 c60 -11 121 -37 146 -61 8 -7 26 -21 40
-30 33 -21 116 -144 123 -182 3 -16 10 -54 17 -84 9 -46 7 -90 -7 -137 -2 -5
-6 -26 -9 -45 -3 -19 -27 -66 -53 -105 -75 -110 -168 -165 -321 -189 -26 -3
-47 2 -87 24 -29 17 -74 41 -100 55 -83 44 -196 145 -209 186 -4 10 -11 19
-16 19 -12 0 -29 43 -31 79 -1 14 -5 31 -10 37 -8 11 -7 17 13 114 6 30 12 60
13 65 2 12 36 65 53 83 7 7 13 17 13 22 0 16 55 63 115 100 22 13 42 28 43 32
2 4 16 8 30 9 15 0 52 7 82 13 58 13 61 13 155 -5z m2255 12 c19 -6 51 -12 71
-15 51 -8 66 -15 135 -63 77 -54 147 -154 163 -233 20 -103 21 -115 10 -175
-15 -84 -26 -112 -75 -181 -46 -65 -156 -149 -210 -158 -16 -3 -40 -8 -54 -11
-76 -15 -81 -14 -168 32 -221 117 -316 224 -336 378 -1 6 5 39 12 75 8 36 14
71 15 79 1 28 93 150 135 181 60 43 115 71 154 77 18 2 49 8 68 13 19 4 37 8
40 9 3 0 21 -3 40 -8z"/>
<path d="M738 3765 c-2 -2 -27 -7 -56 -10 -169 -17 -320 -123 -397 -280 -19
-38 -37 -81 -39 -95 -3 -14 -8 -36 -11 -50 -11 -47 -7 -953 4 -1002 17 -76 41
-129 87 -194 82 -117 203 -190 349 -210 48 -7 510 -13 530 -7 10 3 13 1828 3
1838 -5 5 -37 7 -133 6 -38 0 -92 0 -120 0 -27 0 -83 -1 -122 -1 -40 -1 -77 1
-81 4 -5 3 -11 3 -14 1z"/>
<path d="M6233 3762 l-52 -3 0 -919 c0 -707 3 -919 12 -922 18 -5 497 -1 537
5 212 33 380 196 428 415 9 42 8 974 -2 1013 -41 176 -164 316 -327 377 -65
24 -127 33 -219 32 -36 -1 -74 -1 -85 -1 -11 0 -53 0 -94 1 -41 0 -76 -2 -78
-4 -2 -2 -18 -1 -36 3 -18 3 -55 5 -84 3z"/>
</g>
</svg>
