<?xml version="1.0" encoding="UTF-8" standalone="no"?>
<!DOCTYPE svg PUBLIC "-//W3C//DTD SVG 1.1//EN" "http://www.w3.org/Graphics/SVG/1.1/DTD/svg11.dtd">
<svg version="1.1" xmlns="http://www.w3.org/2000/svg" xmlns:xlink="http://www.w3.org/1999/xlink" preserveAspectRatio="xMidYMid meet" viewBox="226.15999999999994 51.85600000000001 182.28882900000005 412.14088350000003" width="178.29" height="408.14"><defs><path d="M373.7 53.1L373.97 53.26L374.24 53.43L374.48 53.61L374.71 53.82L374.93 54.03L375.13 54.27L375.31 54.51L375.49 54.77L375.65 55.04L375.8 55.32L375.94 55.61L376.07 55.91L376.2 56.22L376.31 56.54L376.42 56.86L376.52 57.19L376.62 57.53L376.71 57.87L376.8 58.21L376.88 58.56L376.97 58.91L377.05 59.26L377.13 59.61L377.21 59.96L377.29 60.31L377.38 60.65L377.47 61L377.56 61.34L377.65 61.68L377.75 62.01L377.86 62.33L377.97 62.65L378.09 62.96L378.22 63.27L378.36 63.56L378.51 63.84L378.67 64.11L378.84 64.38L378.15 65.12L377.44 65.86L376.73 66.58L376.01 67.3L375.28 68.01L374.54 68.71L373.8 69.42L373.07 70.12L372.33 70.82L371.59 71.52L370.86 72.23L370.14 72.95L369.42 73.67L368.71 74.4L368.02 75.15L367.33 75.9L366.67 76.68L366.02 77.47L365.38 78.27L364.77 79.1L364.18 79.95L363.62 80.83L363.08 81.73L362.57 82.66L362.09 83.62L361.64 84.61L361.22 85.63L360.84 86.69L360.49 87.78L360.19 88.92L359.92 90.09L359.7 91.31L359.52 92.57L359.38 93.87L359.3 95.23L359.26 96.63L359.27 98.09L359.34 99.59L359.46 101.16L359.64 102.78L364.91 103.49L369.79 104.57L374.31 106.01L378.47 107.79L382.28 109.9L385.76 112.31L388.92 115.03L391.76 118.02L394.3 121.29L396.54 124.8L398.51 128.55L400.21 132.52L401.64 136.7L402.83 141.08L403.79 145.63L404.51 150.34L405.03 155.2L405.33 160.2L405.45 165.31L405.38 170.53L405.14 175.83L404.75 181.21L404.2 186.65L403.51 192.13L402.7 197.64L401.77 203.16L400.74 208.68L399.61 214.19L398.4 219.67L397.11 225.1L395.77 230.47L394.37 235.77L392.93 240.98L391.47 246.08L389.98 251.06L388.49 255.91L387.01 260.61L385.54 265.14L384.09 269.5L382.69 273.66L381.7 276.52L380.69 279.38L379.66 282.27L378.6 285.17L377.51 288.08L376.41 291L375.27 293.93L374.12 296.87L372.94 299.81L371.75 302.76L370.53 305.72L369.29 308.67L368.03 311.63L366.75 314.59L365.46 317.55L364.15 320.5L362.82 323.45L361.47 326.4L360.11 329.33L358.73 332.26L357.34 335.18L355.93 338.09L354.51 340.99L353.08 343.87L351.63 346.73L350.18 349.58L348.71 352.41L347.23 355.23L345.75 358.02L344.25 360.79L342.75 363.53L341.23 366.25L339.71 368.94L338.19 371.61L336.65 374.25L335.12 376.85L333.57 379.43L332.02 381.97L330.47 384.47L328.92 386.94L327.81 388.69L326.7 390.44L325.59 392.19L324.48 393.94L323.36 395.69L322.25 397.44L321.12 399.19L320 400.93L318.88 402.67L317.75 404.4L316.62 406.12L315.48 407.84L314.35 409.54L313.21 411.23L312.07 412.9L310.93 414.56L309.79 416.21L308.64 417.83L307.49 419.44L306.34 421.03L305.19 422.6L304.03 424.14L302.87 425.66L301.71 427.15L300.55 428.62L299.38 430.05L298.22 431.46L297.05 432.84L295.87 434.18L294.7 435.49L293.52 436.77L292.35 438.01L291.17 439.21L289.98 440.38L288.8 441.5L287.61 442.58L286.42 443.62L285.23 444.61L284.04 445.56L282.84 446.46L281.52 447.41L280.13 448.35L278.69 449.28L277.19 450.2L275.65 451.11L274.05 452L272.42 452.87L270.76 453.72L269.06 454.53L267.34 455.32L265.59 456.06L263.83 456.77L262.06 457.44L260.28 458.06L258.5 458.63L256.73 459.15L254.96 459.61L253.2 460.02L251.46 460.35L249.74 460.62L248.04 460.82L246.38 460.95L244.76 461L243.17 460.96L241.63 460.84L240.14 460.64L238.7 460.34L237.33 459.94L236.01 459.45L234.77 458.85L233.6 458.15L232.51 457.34L231.5 456.41L230.58 455.37L229.75 454.21L229.02 452.92L228.39 451.51L227.87 449.96L227.46 448.28L227.16 446.46L227.16 440.7L229.32 434.17L231.44 427.68L233.51 421.25L235.55 414.86L237.54 408.51L239.5 402.19L241.41 395.91L243.29 389.65L245.13 383.42L246.93 377.2L248.7 370.99L250.44 364.8L252.14 358.6L253.81 352.41L255.44 346.2L257.05 339.99L258.62 333.76L260.17 327.52L261.69 321.24L263.18 314.94L264.65 308.61L266.08 302.24L267.5 295.82L268.89 289.36L270.26 282.84L271.6 276.27L272.93 269.64L274.23 262.94L275.51 256.17L276.78 249.32L278.03 242.4L279.26 235.39L280.47 228.29L281.67 221.1L282.86 213.81L284.03 206.42L285.19 198.92L286.34 191.31L287.47 183.58L288.6 175.74L288.78 175.74L288.96 175.76L289.12 175.79L289.27 175.84L289.41 175.89L289.54 175.95L289.66 176.02L289.77 176.1L289.88 176.19L289.98 176.28L290.07 176.38L290.15 176.49L290.23 176.6L290.31 176.72L290.38 176.84L290.45 176.96L290.51 177.09L290.57 177.22L290.63 177.35L290.69 177.49L290.74 177.62L290.8 177.76L290.86 177.89L290.92 178.03L290.98 178.16L291.04 178.29L291.1 178.42L291.17 178.54L291.24 178.66L291.32 178.78L291.4 178.89L291.48 179L291.57 179.1L291.67 179.19L291.78 179.28L291.89 179.35L292.02 179.42L292.15 179.48L292.29 179.54L292.44 179.58L291.68 177.78L291.01 175.9L290.42 173.93L289.92 171.89L289.51 169.78L289.17 167.61L288.92 165.39L288.75 163.12L288.66 160.82L288.65 158.48L288.71 156.12L288.85 153.75L289.07 151.37L289.36 148.99L289.72 146.62L290.16 144.27L290.66 141.94L291.24 139.64L291.88 137.38L292.6 135.16L293.37 133L294.22 130.9L295.13 128.87L296.1 126.92L297.13 125.05L298.22 123.28L299.38 121.6L300.59 120.03L301.86 118.58L303.19 117.25L304.57 116.05L306 114.99L307.49 114.07L309.04 113.31L310.63 112.71L312.27 112.27L313.96 112.02L315.7 111.94L317.49 112.06L319.32 112.38L319.13 111.46L319.01 110.6L318.97 109.78L318.99 109.02L319.07 108.31L319.22 107.64L319.42 107.03L319.68 106.45L319.98 105.92L320.33 105.43L320.72 104.98L321.14 104.57L321.6 104.19L322.09 103.85L322.6 103.55L323.14 103.27L323.7 103.03L324.27 102.82L324.85 102.64L325.43 102.49L326.02 102.35L326.61 102.25L327.2 102.17L327.77 102.1L328.34 102.06L328.89 102.03L329.42 102.03L329.92 102.03L330.4 102.05L330.84 102.09L331.26 102.13L331.63 102.19L331.96 102.25L332.24 102.31L332.48 102.39L332.66 102.46L332.78 102.54L332.84 102.62L332.83 102.7L332.76 102.78L333.13 102.5L333.48 102.21L333.8 101.91L334.09 101.58L334.36 101.25L334.61 100.9L334.84 100.55L335.05 100.18L335.24 99.81L335.41 99.44L335.57 99.07L335.72 98.69L335.85 98.32L335.97 97.94L336.09 97.58L336.2 97.22L336.3 96.86L336.4 96.52L336.49 96.19L336.58 95.87L336.68 95.57L336.77 95.29L336.87 95.02L336.97 94.78L337.08 94.55L337.2 94.35L337.32 94.18L337.46 94.04L337.61 93.92L337.77 93.84L337.94 93.78L338.14 93.77L338.35 93.79L338.57 93.85L338.82 93.94L339.1 94.08L339.39 94.27L339.72 94.5L340.06 94.77L340.44 95.1L340.46 93.54L340.49 92.02L340.53 90.53L340.59 89.07L340.65 87.64L340.72 86.24L340.81 84.87L340.92 83.53L341.04 82.22L341.17 80.93L341.33 79.67L341.5 78.44L341.69 77.24L341.9 76.06L342.13 74.91L342.39 73.78L342.66 72.67L342.97 71.59L343.29 70.54L343.65 69.5L344.03 68.49L344.44 67.5L344.87 66.53L345.34 65.59L345.84 64.66L346.37 63.75L346.94 62.86L347.54 62L348.17 61.14L348.84 60.31L349.54 59.5L350.29 58.7L351.07 57.92L351.89 57.15L352.76 56.4L353.66 55.66L354.61 54.94L355.6 54.23L356.64 53.54L357.72 52.86L373.08 52.86L373.4 52.97L373.7 53.1ZM382.5 176.24L381.49 176.52L380.5 176.82L379.53 177.15L378.57 177.49L377.64 177.86L376.72 178.24L375.82 178.63L374.93 179.03L374.05 179.45L373.18 179.88L372.32 180.31L371.47 180.75L370.62 181.2L369.77 181.65L368.92 182.1L368.08 182.55L367.23 183L366.38 183.44L365.53 183.88L364.66 184.32L363.79 184.74L362.91 185.16L362.02 185.56L361.12 185.95L360.2 186.33L359.26 186.69L358.31 187.04L357.34 187.36L356.35 187.66L355.33 187.94L354.29 188.2L353.23 188.43L352.13 188.63L351.01 188.81L349.86 188.95L348.67 189.06L347.45 189.14L346.2 189.18L346.17 189.12L346.15 189.05L346.14 188.98L346.14 188.9L346.16 188.81L346.18 188.71L346.2 188.61L346.24 188.5L346.28 188.39L346.33 188.28L346.39 188.16L346.45 188.04L346.51 187.91L346.58 187.79L346.65 187.66L346.73 187.53L346.81 187.4L346.89 187.27L346.98 187.14L347.06 187.01L347.15 186.88L347.23 186.76L347.31 186.63L347.4 186.51L347.48 186.4L347.56 186.28L347.63 186.17L347.71 186.07L347.78 185.97L347.84 185.87L347.9 185.78L347.95 185.7L348 185.63L348.04 185.56L348.08 185.5L348.1 185.45L348.12 185.41L348.13 185.38L348.13 185.36L348.12 185.34L347.43 185.07L346.7 184.79L345.95 184.5L345.17 184.19L344.37 183.88L343.54 183.56L342.69 183.24L341.82 182.91L340.93 182.58L340.02 182.25L339.11 181.91L338.18 181.58L337.24 181.25L336.29 180.92L335.34 180.6L334.39 180.28L333.43 179.97L332.47 179.67L331.52 179.38L330.57 179.1L329.62 178.83L328.69 178.57L327.76 178.33L326.85 178.1L325.95 177.9L325.06 177.71L324.2 177.53L323.35 177.38L322.53 177.26L321.73 177.15L320.95 177.07L320.21 177.02L319.49 176.99L318.81 176.99L318.16 177.02L317.54 177.08L316.96 177.18L316.43 177.3L315.93 177.47L315.48 177.66L315.81 178.05L316.09 178.46L316.33 178.89L316.53 179.34L316.69 179.8L316.81 180.28L316.89 180.78L316.95 181.29L316.97 181.82L316.96 182.36L316.92 182.91L316.86 183.48L316.77 184.05L316.65 184.64L316.52 185.23L316.37 185.84L316.2 186.45L316.01 187.07L315.81 187.69L315.6 188.32L315.38 188.95L315.15 189.59L314.91 190.23L314.67 190.87L314.43 191.52L314.18 192.16L313.94 192.8L313.7 193.44L313.46 194.08L313.23 194.71L313 195.35L312.79 195.97L312.59 196.59L312.4 197.21L312.22 197.81L312.06 198.41L311.93 199L311.81 199.58L311.71 200.15L311.64 200.7L311.45 202.57L311.27 204.54L311.09 206.61L310.92 208.78L310.75 211.04L310.58 213.37L310.41 215.78L310.23 218.25L310.06 220.77L309.88 223.34L309.69 225.95L309.49 228.59L309.28 231.26L309.06 233.94L308.83 236.63L308.59 239.31L308.33 241.99L308.05 244.66L307.75 247.3L307.43 249.91L307.09 252.48L306.72 255L306.33 257.46L305.91 259.87L305.47 262.2L304.99 264.45L304.49 266.62L303.95 268.69L303.38 270.65L302.77 272.51L302.12 274.25L301.43 275.86L300.71 277.34L299.94 278.68L299.13 279.86L298.27 280.89L297.37 281.75L296.41 282.44L295.41 282.95L294.36 283.26L294.73 284.65L295.06 286.06L295.37 287.47L295.64 288.89L295.88 290.32L296.08 291.75L296.26 293.18L296.4 294.62L296.52 296.06L296.6 297.49L296.65 298.92L296.67 300.35L296.65 301.77L296.61 303.18L296.53 304.58L296.43 305.96L296.29 307.34L296.12 308.7L295.92 310.04L295.7 311.36L295.43 312.66L295.14 313.94L294.82 315.2L294.47 316.43L294.09 317.63L293.68 318.81L293.23 319.95L292.76 321.06L292.26 322.14L291.72 323.18L291.16 324.18L290.57 325.15L289.95 326.07L289.29 326.96L288.61 327.79L287.9 328.59L287.16 329.33L286.39 330.03L285.59 330.67L284.76 331.26L285.1 331.64L285.42 332.02L285.72 332.41L285.99 332.81L286.25 333.21L286.48 333.62L286.68 334.02L286.87 334.43L287.03 334.84L287.18 335.26L287.3 335.67L287.4 336.07L287.48 336.48L287.54 336.88L287.58 337.28L287.6 337.67L287.6 338.05L287.58 338.43L287.55 338.8L287.49 339.15L287.42 339.5L287.32 339.84L287.21 340.16L287.08 340.47L286.94 340.76L286.78 341.04L286.6 341.31L286.4 341.55L286.19 341.78L285.96 341.99L285.71 342.17L285.45 342.34L285.18 342.48L284.89 342.6L284.58 342.7L284.26 342.77L283.93 342.82L283.58 342.83L283.22 342.82L282.84 342.78L283.05 342.91L283.26 343.04L283.45 343.18L283.65 343.32L283.83 343.47L284.02 343.62L284.19 343.78L284.36 343.95L284.52 344.12L284.68 344.3L284.83 344.48L284.98 344.67L285.12 344.87L285.25 345.07L285.38 345.28L285.5 345.49L285.62 345.71L285.73 345.94L285.84 346.17L285.94 346.41L286.03 346.65L286.12 346.9L286.2 347.15L286.27 347.41L286.34 347.68L286.41 347.95L286.46 348.23L286.52 348.51L286.56 348.8L286.6 349.1L286.64 349.4L286.66 349.71L286.69 350.02L286.7 350.34L286.71 350.67L286.72 351L286.72 351.34L286.71 351.68L286.7 352.03L286.68 352.38L285.87 352.19L285.14 352.04L284.5 351.93L283.93 351.87L283.44 351.84L283.01 351.86L282.66 351.91L282.36 352L282.12 352.12L281.93 352.28L281.79 352.46L281.7 352.67L281.65 352.91L281.63 353.17L281.65 353.45L281.7 353.75L281.77 354.07L281.86 354.4L281.97 354.75L282.09 355.11L282.22 355.48L282.35 355.87L282.49 356.25L282.62 356.64L282.74 357.04L282.86 357.43L282.95 357.83L283.03 358.22L283.08 358.6L283.1 358.98L283.1 359.35L283.05 359.71L282.97 360.06L282.84 360.39L282.67 360.71L282.44 361.01L282.15 361.28L281.81 361.54L281.4 361.77L280.92 361.98L281.03 361.68L281.13 361.36L281.21 361.03L281.27 360.7L281.31 360.35L281.34 360L281.36 359.64L281.36 359.28L281.34 358.92L281.32 358.56L281.28 358.2L281.22 357.84L281.16 357.49L281.08 357.14L281 356.81L280.9 356.48L280.8 356.17L280.68 355.87L280.56 355.58L280.43 355.32L280.29 355.07L280.15 354.84L280 354.63L279.84 354.45L279.68 354.3L279.52 354.17L279.35 354.07L279.18 354L279 353.97L278.83 353.96L278.65 354L278.47 354.07L278.29 354.18L278.11 354.34L277.93 354.53L277.76 354.77L277.58 355.06L277.41 355.39L277.24 355.78L277.08 356.22L277.63 356.59L278.09 356.98L278.48 357.37L278.79 357.77L279.03 358.18L279.2 358.6L279.31 359.02L279.36 359.44L279.36 359.88L279.31 360.31L279.21 360.75L279.07 361.2L278.9 361.65L278.7 362.1L278.47 362.56L278.22 363.01L277.95 363.47L277.67 363.93L277.38 364.39L276.78 365.32L276.49 365.78L276.21 366.24L275.94 366.7L275.69 367.16L275.46 367.61L275.26 368.06L275.09 368.51L274.95 368.96L274.85 369.4L274.8 369.84L274.8 370.27L274.85 370.69L274.96 371.12L275.13 371.53L275.37 371.94L275.68 372.34L276.07 372.73L276.53 373.12L277.08 373.5L277.08 373.42L277.09 373.34L277.1 373.26L277.12 373.18L277.15 373.1L277.17 373.02L277.21 372.95L277.24 372.88L277.28 372.81L277.33 372.74L277.37 372.67L277.42 372.61L277.48 372.55L277.53 372.5L277.59 372.45L277.65 372.41L277.71 372.37L277.77 372.33L277.84 372.3L277.9 372.28L277.97 372.26L278.03 372.25L278.1 372.24L278.17 372.25L278.23 372.26L278.3 372.27L278.36 372.3L278.43 372.33L278.49 372.38L278.55 372.43L278.61 372.49L278.66 372.56L278.71 372.64L278.77 372.73L278.81 372.83L278.86 372.94L278.9 373.06L278.94 373.19L278.97 373.34L279 373.5L278.71 373.73L278.44 373.94L278.18 374.12L277.94 374.27L277.71 374.4L277.49 374.51L277.28 374.6L277.07 374.66L276.88 374.71L276.7 374.74L276.52 374.75L276.36 374.76L276.19 374.74L276.04 374.72L275.88 374.69L275.73 374.65L275.59 374.61L275.44 374.56L275.3 374.51L275.02 374.4L274.88 374.35L274.73 374.3L274.59 374.26L274.44 374.22L274.28 374.19L274.13 374.17L273.96 374.16L273.8 374.16L273.62 374.17L273.44 374.2L273.25 374.25L273.04 374.32L272.83 374.4L272.61 374.51L272.38 374.64L272.14 374.79L271.88 374.97L271.61 375.18L271.32 375.42L271.16 377.41L270.94 379.35L270.68 381.25L270.37 383.09L270.01 384.88L269.62 386.64L269.19 388.35L268.73 390.02L268.23 391.66L267.71 393.26L267.17 394.84L266.6 396.38L266.01 397.9L265.41 399.4L264.79 400.88L264.17 402.34L263.54 403.78L262.9 405.21L262.26 406.64L261.63 408.05L261 409.46L260.38 410.87L259.77 412.28L259.18 413.69L258.6 415.1L258.04 416.53L257.51 417.96L257 419.41L256.52 420.88L256.07 422.36L255.66 423.86L255.29 425.39L254.96 426.95L254.67 428.53L254.43 430.14L254.24 431.79L254.1 433.48L254.02 435.2L254 436.97L254.04 438.78L259.99 434.9L265.75 430.82L271.34 426.54L276.74 422.05L281.98 417.38L287.04 412.51L291.94 407.46L296.68 402.24L301.26 396.85L305.68 391.29L309.96 385.57L314.08 379.7L318.06 373.68L321.91 367.52L325.61 361.22L329.19 354.79L332.63 348.23L335.95 341.56L339.14 334.77L342.22 327.87L345.19 320.87L348.04 313.77L350.78 306.58L353.43 299.3L355.97 291.94L358.41 284.51L360.77 277.01L363.03 269.44L365.21 261.82L367.31 254.15L369.33 246.42L371.27 238.66L373.15 230.86L374.96 223.03L376.7 215.18L378.39 207.31L380.01 199.42L381.59 191.53L383.12 183.63L384.6 175.74L383.54 175.98L382.5 176.24ZM344.9 121.2L342.92 121.52L340.96 121.97L339.05 122.54L337.17 123.23L335.34 124.02L333.55 124.93L331.82 125.94L330.15 127.05L328.55 128.26L327.01 129.56L325.54 130.95L324.15 132.42L322.84 133.97L321.61 135.59L320.48 137.29L319.44 139.05L318.51 140.87L317.68 142.75L316.95 144.69L316.34 146.67L315.85 148.7L315.49 150.78L317.91 151.49L320.32 152.18L322.71 152.85L325.09 153.5L327.45 154.12L329.8 154.71L332.12 155.26L334.42 155.77L336.71 156.23L338.97 156.63L341.2 156.98L343.41 157.27L345.6 157.49L347.76 157.65L349.89 157.72L351.99 157.72L354.06 157.63L356.1 157.46L358.11 157.19L360.09 156.82L362.03 156.35L363.93 155.78L365.8 155.09L367.63 154.28L369.42 153.36L371.17 152.3L372.88 151.12L374.54 149.81L376.17 148.35L377.75 146.75L379.28 145L380.77 143.1L379.77 142.63L378.8 142.14L377.87 141.63L376.98 141.09L376.12 140.54L375.29 139.96L374.5 139.38L373.75 138.77L373.02 138.16L372.34 137.54L371.68 136.91L371.06 136.28L370.47 135.65L369.92 135.01L369.4 134.38L368.91 133.75L368.46 133.12L368.03 132.5L367.64 131.89L367.28 131.3L366.96 130.71L366.66 130.15L366.4 129.6L366.17 129.07L365.96 128.56L365.79 128.08L365.65 127.63L365.54 127.2L365.47 126.8L365.42 126.44L365.4 126.11L365.41 125.82L363.37 124.65L361.32 123.65L359.26 122.82L357.19 122.14L355.12 121.62L353.05 121.25L350.99 121.03L348.94 120.95L346.91 121.01L344.9 121.2Z" id="b1bPcYFVd"></path></defs><g><g><use xlink:href="#b1bPcYFVd" opacity="1" fill="#000000" fill-opacity="1"></use><g><use xlink:href="#b1bPcYFVd" opacity="1" fill-opacity="0" stroke="#000000" stroke-width="1" stroke-opacity="0"></use></g></g></g></svg>