<?xml version="1.0" encoding="UTF-8" standalone="no"?>
<!DOCTYPE svg PUBLIC "-//W3C//DTD SVG 1.1//EN" "http://www.w3.org/Graphics/SVG/1.1/DTD/svg11.dtd">
<svg version="1.1" xmlns="http://www.w3.org/2000/svg" xmlns:xlink="http://www.w3.org/1999/xlink" preserveAspectRatio="xMidYMid meet" viewBox="-0.2404761900000001 -0.25873015899999996 52.477777790000005 41.304761859" width="48.48" height="37.3"><defs><path d="M37.62 16.71L37.91 16.77L38.19 16.86L38.47 16.97L38.73 17.1L38.98 17.25L39.21 17.42L39.43 17.6L39.63 17.81L39.82 18.03L39.99 18.26L40.14 18.51L40.27 18.77L40.38 19.05L40.47 19.33L40.53 19.62L40.57 19.92L40.58 20.23L40.58 34.47L40.57 34.78L40.53 35.08L40.47 35.37L40.38 35.66L40.27 35.93L40.14 36.19L39.99 36.44L39.82 36.67L39.63 36.89L39.43 37.1L39.21 37.28L38.97 37.45L38.73 37.6L38.46 37.74L38.19 37.84L37.91 37.93L37.62 37.99L37.32 38.03L37.01 38.05L12.99 38.05L12.68 38.03L12.38 37.99L12.09 37.93L11.8 37.84L11.53 37.74L11.27 37.6L11.02 37.45L10.79 37.28L10.57 37.1L10.36 36.89L10.18 36.67L10.01 36.44L9.86 36.19L9.73 35.93L9.62 35.66L9.53 35.37L9.47 35.08L9.43 34.78L9.42 34.47L9.42 20.23L9.43 19.92L9.47 19.62L9.53 19.33L9.62 19.05L9.73 18.77L9.86 18.51L10.01 18.26L10.18 18.03L10.36 17.81L10.57 17.6L10.79 17.42L11.02 17.25L11.27 17.1L11.53 16.97L11.8 16.86L12.09 16.77L12.38 16.71L12.68 16.67L12.99 16.65L37.01 16.65L37.32 16.67L37.62 16.71ZM14.81 25.23L14.16 26.18L13.93 27.35L14.11 28.16L14.68 28.93L15.61 29.66L16.93 30.35L18.09 30.12L19.05 29.47L19.69 28.52L19.93 27.35L19.69 26.18L19.05 25.23L18.09 24.59L16.93 24.36L15.76 24.59L14.81 25.23ZM30.95 25.23L30.31 26.18L30.08 27.35L30.26 28.16L30.83 28.93L31.76 29.66L33.07 30.35L34.24 30.12L35.19 29.47L35.84 28.52L36.07 27.35L35.84 26.18L35.19 25.23L34.24 24.59L33.07 24.36L31.91 24.59L30.95 25.23Z" id="cEHRVjzyZ"></path><path d="M26.59 6.86C26.59 7.4 26.59 10.11 26.59 14.97L23.4 14.97C23.4 10.11 23.4 7.4 23.4 6.86C22.4 6.3 21.73 5.24 21.73 4.01C21.73 2.2 23.19 0.74 25 0.74C26.8 0.74 28.27 2.2 28.27 4.01C28.27 4.01 28.27 4.01 28.27 4.01C27.82 5.54 27.26 6.49 26.59 6.86Z" id="aauAcuRvw"></path><path d="M7.63 33.79C5.65 33.79 4.55 33.79 4.33 33.79C2.37 33.79 0.76 32.18 0.76 30.22C0.76 29.64 0.76 25.06 0.76 24.49C0.76 22.53 2.37 20.92 4.33 20.92C4.55 20.92 5.65 20.92 7.63 20.92L7.63 33.79Z" id="aHqXfrG9h"></path><path d="M7.63 33.79C5.65 33.79 4.55 33.79 4.33 33.79C2.37 33.79 0.76 32.18 0.76 30.22C0.76 29.64 0.76 25.06 0.76 24.49C0.76 22.53 2.37 20.92 4.33 20.92C4.55 20.92 5.65 20.92 7.63 20.92L7.63 33.79Z" id="a24BPiYyAY"></path><path d="M49.24 30.22C49.24 32.18 47.63 33.79 45.67 33.79C45.45 33.79 44.35 33.79 42.37 33.79L42.37 20.92C44.35 20.92 45.45 20.92 45.67 20.92C47.63 20.92 49.24 22.53 49.24 24.49C49.24 24.49 49.24 24.49 49.24 24.49C49.24 27.93 49.24 29.84 49.24 30.22Z" id="a19gZ1wlv7"></path><path d="M49.24 30.22C49.24 32.18 47.63 33.79 45.67 33.79C45.45 33.79 44.35 33.79 42.37 33.79L42.37 20.92C44.35 20.92 45.45 20.92 45.67 20.92C47.63 20.92 49.24 22.53 49.24 24.49C49.24 24.49 49.24 24.49 49.24 24.49C49.24 27.93 49.24 29.84 49.24 30.22Z" id="gmKSU6Tef"></path></defs><g><g><use xlink:href="#cEHRVjzyZ" opacity="1" fill="#000000" fill-opacity="1"></use><g><use xlink:href="#cEHRVjzyZ" opacity="1" fill-opacity="0" stroke="#000000" stroke-width="1" stroke-opacity="0"></use></g></g><g><use xlink:href="#aauAcuRvw" opacity="1" fill="#000000" fill-opacity="1"></use><g><use xlink:href="#aauAcuRvw" opacity="1" fill-opacity="0" stroke="#000000" stroke-width="1" stroke-opacity="0"></use></g></g><g><use xlink:href="#aHqXfrG9h" opacity="1" fill="#000000" fill-opacity="1"></use><g><use xlink:href="#aHqXfrG9h" opacity="1" fill-opacity="0" stroke="#000000" stroke-width="1" stroke-opacity="0"></use></g></g><g><use xlink:href="#a24BPiYyAY" opacity="1" fill="#000000" fill-opacity="1"></use><g><use xlink:href="#a24BPiYyAY" opacity="1" fill-opacity="0" stroke="#000000" stroke-width="1" stroke-opacity="0"></use></g></g><g><use xlink:href="#a19gZ1wlv7" opacity="1" fill="#000000" fill-opacity="1"></use><g><use xlink:href="#a19gZ1wlv7" opacity="1" fill-opacity="0" stroke="#000000" stroke-width="1" stroke-opacity="0"></use></g></g><g><use xlink:href="#gmKSU6Tef" opacity="1" fill="#000000" fill-opacity="1"></use><g><use xlink:href="#gmKSU6Tef" opacity="1" fill-opacity="0" stroke="#000000" stroke-width="1" stroke-opacity="0"></use></g></g></g></svg>