<?xml version="1.0" encoding="UTF-8" standalone="no"?>
<!DOCTYPE svg PUBLIC "-//W3C//DTD SVG 1.1//EN" "http://www.w3.org/Graphics/SVG/1.1/DTD/svg11.dtd">
<svg version="1.1" xmlns="http://www.w3.org/2000/svg" xmlns:xlink="http://www.w3.org/1999/xlink" preserveAspectRatio="xMidYMid meet" viewBox="-0.023527656760506943 2.75829110460743 178.0952540761562 402.5374221697369" width="174.1" height="398.54"><defs><path d="M144.07 3.99L144.33 4.15L144.6 4.31L144.83 4.49L145.05 4.7L145.27 4.9L145.47 5.14L145.64 5.37L145.82 5.62L145.97 5.89L146.12 6.16L146.26 6.44L146.38 6.74L146.51 7.04L146.72 7.66L146.82 7.99L146.92 8.32L147.1 8.98L147.17 9.32L147.26 9.67L147.57 11.03L147.66 11.37L147.75 11.71L147.93 12.37L148.02 12.69L148.24 13.32L148.36 13.62L148.48 13.92L148.62 14.21L148.77 14.48L148.92 14.74L149.09 15.01L148.41 15.73L147.72 16.45L147.03 17.16L146.32 17.86L145.61 18.55L144.89 19.24L144.17 19.93L143.45 20.61L142.01 21.98L141.3 22.67L139.89 24.08L139.2 24.79L137.85 26.26L137.2 27.02L136.57 27.79L135.94 28.57L135.35 29.38L134.77 30.21L134.23 31.07L133.7 31.95L133.2 32.86L132.73 33.79L132.29 34.76L131.88 35.76L131.51 36.79L131.17 37.86L130.88 38.97L130.61 40.11L130.4 41.3L130.22 42.53L130.09 43.8L130.01 45.13L129.97 46.5L129.98 47.92L130.05 49.39L130.16 50.92L130.34 52.5L135.49 53.2L140.25 54.25L144.66 55.66L148.73 57.4L152.45 59.46L155.84 61.81L158.93 64.47L161.7 67.39L164.18 70.58L166.37 74.01L168.3 77.67L169.96 81.54L171.35 85.63L172.51 89.9L173.45 94.35L174.15 98.94L174.66 103.69L174.95 108.57L175.07 113.56L175 118.66L174.77 123.84L174.39 129.09L173.85 134.4L173.18 139.75L172.39 145.13L171.48 150.52L170.47 155.91L169.37 161.29L168.19 166.64L166.93 171.95L165.62 177.19L164.25 182.36L162.85 187.45L161.42 192.43L159.97 197.3L158.51 202.03L157.07 206.62L155.63 211.04L154.21 215.3L152.85 219.36L151.88 222.16L150.89 224.95L149.89 227.77L148.85 230.6L147.79 233.44L146.71 236.3L145.6 239.16L144.48 242.03L143.33 244.9L142.16 247.78L140.97 250.67L139.76 253.55L138.53 256.44L137.28 259.33L136.02 262.22L134.74 265.1L133.44 267.98L132.13 270.86L130.8 273.72L129.45 276.58L128.09 279.44L126.72 282.28L125.33 285.11L123.93 287.92L122.52 290.71L121.1 293.5L119.67 296.26L118.22 299.01L116.78 301.74L115.31 304.44L113.85 307.12L112.36 309.77L110.88 312.4L109.39 315.01L107.89 317.59L106.4 320.13L104.88 322.64L103.37 325.13L101.86 327.57L100.34 329.98L96.01 336.81L94.91 338.52L93.83 340.23L92.73 341.94L90.54 345.34L89.44 347.03L88.33 348.71L87.22 350.39L86.12 352.05L85 353.7L83.89 355.33L82.78 356.95L81.66 358.56L80.54 360.14L79.42 361.71L78.29 363.27L77.17 364.8L76.04 366.3L74.91 367.79L73.77 369.24L72.64 370.68L71.5 372.07L70.36 373.45L69.22 374.8L68.07 376.11L66.93 377.39L65.78 378.64L64.63 379.85L63.48 381.02L62.32 382.16L61.17 383.25L60 384.31L58.84 385.32L57.68 386.29L56.52 387.22L55.35 388.1L54.06 389.03L52.7 389.94L51.29 390.85L49.83 391.75L48.33 392.64L46.76 393.51L45.17 394.36L43.55 395.19L41.89 395.98L40.21 396.75L38.5 397.47L36.78 398.17L35.06 398.82L33.32 399.42L31.58 399.98L29.85 400.49L28.12 400.94L26.4 401.34L24.7 401.66L23.03 401.92L21.37 402.12L19.74 402.25L18.16 402.3L16.61 402.26L15.11 402.14L13.65 401.94L12.24 401.65L10.91 401.26L9.62 400.78L8.41 400.2L7.26 399.51L6.2 398.72L5.21 397.81L4.32 396.8L3.51 395.67L2.79 394.41L2.18 393.03L1.67 391.52L1.27 389.87L0.98 388.1L0.98 382.47L3.09 376.1L5.16 369.76L7.18 363.48L9.17 357.24L11.11 351.04L13.03 344.87L14.89 338.74L16.73 332.62L18.52 326.54L20.28 320.47L22.01 314.4L23.71 308.36L25.37 302.3L27 296.26L28.59 290.2L30.16 284.13L31.7 278.05L33.21 271.96L34.69 265.82L36.15 259.67L37.58 253.49L38.98 247.27L40.37 241L41.72 234.69L43.06 228.33L44.37 221.91L45.67 215.44L46.94 208.9L48.19 202.28L49.43 195.6L50.65 188.84L51.85 181.99L53.03 175.06L54.2 168.04L55.37 160.92L56.51 153.71L57.64 146.38L58.76 138.95L59.87 131.4L60.97 123.75L61.15 123.75L61.32 123.77L61.48 123.8L61.63 123.84L61.76 123.89L61.89 123.95L62.01 124.02L62.11 124.1L62.22 124.19L62.32 124.27L62.41 124.37L62.56 124.59L62.64 124.7L62.78 124.94L62.95 125.32L63.01 125.46L63.06 125.58L63.12 125.72L63.18 125.85L63.24 125.98L63.41 126.36L63.55 126.6L63.63 126.72L63.78 126.93L63.87 127.03L63.97 127.12L64.08 127.2L64.18 127.27L64.31 127.34L64.44 127.4L64.57 127.46L64.72 127.5L63.98 125.74L63.32 123.9L62.75 121.98L62.26 119.99L61.86 117.93L61.53 115.81L61.28 113.64L61.12 111.42L61.03 109.18L61.02 106.89L61.08 104.59L61.22 102.27L61.43 99.95L61.71 97.63L62.06 95.31L62.49 93.02L62.98 90.74L63.55 88.5L64.17 86.29L64.88 84.12L65.63 82.01L66.46 79.96L67.35 77.98L68.29 76.08L69.3 74.25L70.36 72.52L71.5 70.88L72.68 69.35L73.92 67.93L75.22 66.63L76.57 65.46L77.96 64.43L79.42 63.53L80.93 62.79L82.48 62.2L84.08 61.77L85.73 61.53L87.43 61.45L89.18 61.57L90.97 61.88L90.78 60.98L90.67 60.14L90.63 59.34L90.65 58.6L90.72 57.9L90.87 57.25L91.07 56.65L91.32 56.09L91.61 55.57L91.95 55.09L92.34 54.65L92.75 54.25L93.19 53.88L93.67 53.55L94.17 53.26L94.7 52.98L95.25 52.75L95.8 52.54L96.37 52.37L96.93 52.22L97.51 52.08L98.09 51.99L98.66 51.91L99.22 51.84L99.78 51.8L100.31 51.77L101.32 51.77L101.79 51.79L102.22 51.83L102.63 51.87L102.99 51.93L103.31 51.99L103.58 52.04L103.82 52.12L103.99 52.19L104.11 52.27L104.17 52.35L104.16 52.43L104.09 52.5L104.45 52.23L104.8 51.95L105.11 51.65L105.39 51.33L105.65 51.01L105.9 50.67L106.12 50.33L106.33 49.96L106.51 49.6L106.68 49.24L106.84 48.88L106.98 48.51L107.11 48.15L107.23 47.78L107.34 47.43L107.45 47.07L107.55 46.72L107.65 46.39L107.73 46.07L107.82 45.76L107.92 45.46L108.01 45.19L108.11 44.93L108.2 44.69L108.31 44.47L108.43 44.27L108.54 44.11L108.68 43.97L108.83 43.85L108.98 43.77L109.15 43.72L109.35 43.71L109.55 43.73L109.77 43.78L110.01 43.87L110.28 44.01L110.57 44.19L110.89 44.42L111.22 44.68L111.59 45L111.61 43.48L111.64 42L111.68 40.54L111.74 39.12L111.8 37.72L111.86 36.35L111.95 35.02L112.06 33.71L112.18 32.43L112.3 31.17L112.46 29.94L112.63 28.74L112.81 27.56L113.02 26.41L113.24 25.29L113.5 24.19L113.76 23.1L114.06 22.05L114.37 21.02L114.73 20.01L115.1 19.02L115.5 18.05L115.92 17.11L116.38 16.19L116.86 15.28L117.38 14.39L117.94 13.52L118.52 12.68L119.14 11.84L119.79 11.03L120.48 10.24L121.21 9.46L121.97 8.7L122.77 7.95L123.62 7.22L124.5 6.49L125.43 5.79L126.39 5.1L127.41 4.42L128.46 3.76L143.46 3.76L143.78 3.87L144.07 3.99ZM152.66 124.24L151.68 124.51L150.71 124.8L149.76 125.12L148.82 125.46L147.92 125.82L147.02 126.19L146.14 126.57L145.27 126.96L144.41 127.37L143.56 127.79L142.72 128.21L141.89 128.64L139.4 129.96L138.58 130.4L137.75 130.84L136.09 131.7L135.24 132.13L134.39 132.54L133.53 132.95L132.66 133.34L131.78 133.72L130.89 134.09L129.97 134.44L129.04 134.78L128.09 135.09L127.13 135.39L126.13 135.66L125.12 135.91L124.08 136.14L123.01 136.33L121.91 136.51L120.79 136.65L119.63 136.75L118.44 136.83L117.22 136.87L117.19 136.81L117.17 136.74L117.16 136.68L117.16 136.6L117.18 136.51L117.22 136.31L117.29 136.1L117.34 135.99L117.46 135.76L117.52 135.63L117.59 135.51L117.66 135.39L117.89 135.01L117.98 134.88L118.06 134.75L118.14 134.63L118.22 134.51L118.3 134.38L118.39 134.26L118.47 134.16L118.54 134.04L118.61 133.93L118.69 133.83L118.76 133.74L118.82 133.64L118.88 133.55L118.92 133.47L118.97 133.4L119.01 133.34L119.05 133.28L119.07 133.23L119.09 133.19L119.1 133.16L119.1 133.14L119.09 133.12L118.42 132.86L117.7 132.58L116.97 132.3L116.21 132L115.43 131.7L114.62 131.38L113.79 131.07L112.94 130.75L112.07 130.43L111.18 130.1L110.29 129.77L109.38 129.45L108.47 129.13L107.54 128.81L105.68 128.18L104.75 127.88L103.81 127.58L102.88 127.3L101.95 127.03L101.03 126.76L100.12 126.51L99.21 126.28L98.32 126.05L97.44 125.86L96.57 125.67L95.73 125.5L94.9 125.35L94.1 125.23L93.32 125.12L92.56 125.05L91.84 125L91.13 124.97L90.47 124.97L89.84 125L89.23 125.06L88.66 125.15L88.15 125.27L87.66 125.44L87.22 125.62L87.54 126L87.81 126.4L88.05 126.82L88.24 127.26L88.4 127.71L88.52 128.18L88.6 128.67L88.65 129.17L88.67 129.68L88.66 130.21L88.62 130.75L88.57 131.31L88.48 131.86L88.36 132.44L88.23 133.01L88.09 133.61L87.92 134.21L87.74 134.81L87.54 135.42L87.34 136.03L87.12 136.65L86.9 137.27L86.43 138.52L86.19 139.16L85.95 139.78L85.25 141.66L85.02 142.27L84.8 142.9L84.59 143.5L84.4 144.11L84.21 144.71L84.04 145.3L83.88 145.88L83.75 146.46L83.63 147.03L83.54 147.58L83.47 148.12L83.28 149.95L83.11 151.87L82.93 153.89L82.77 156.01L82.6 158.22L82.43 160.49L82.27 162.85L82.09 165.26L81.93 167.72L81.75 170.23L81.56 172.78L81.37 175.35L81.16 177.96L80.95 180.58L80.72 183.2L80.49 185.82L80.24 188.44L79.96 191.05L79.67 193.62L79.36 196.17L79.03 198.68L78.66 201.14L78.28 203.54L77.87 205.9L77.44 208.17L76.98 210.37L76.49 212.49L75.96 214.51L75.4 216.42L74.81 218.24L74.17 219.94L73.5 221.51L72.8 222.96L72.04 224.27L71.25 225.42L70.41 226.42L69.53 227.26L68.6 227.94L67.62 228.43L66.6 228.74L66.96 230.09L67.28 231.47L67.58 232.85L67.85 234.24L68.08 235.63L68.27 237.03L68.45 238.42L68.59 239.83L68.7 241.24L68.78 242.63L68.83 244.03L68.85 245.43L68.83 246.81L68.79 248.19L68.71 249.56L68.62 250.9L68.48 252.25L68.31 253.58L68.12 254.89L67.9 256.18L67.64 257.45L67.36 258.7L67.04 259.93L66.7 261.13L66.33 262.3L65.93 263.45L65.49 264.56L65.03 265.65L64.54 266.7L64.02 267.72L63.47 268.69L62.89 269.64L62.29 270.54L61.64 271.41L60.98 272.22L60.29 273L59.56 273.72L58.81 274.41L58.03 275.03L57.22 275.61L57.55 275.98L57.87 276.35L58.16 276.73L58.42 277.12L58.68 277.51L58.9 277.91L59.1 278.3L59.28 278.7L59.44 279.1L59.58 279.51L59.7 279.91L59.8 280.31L59.88 280.71L59.94 281.1L59.97 281.49L59.99 281.87L59.99 282.24L59.97 282.61L59.95 282.97L59.89 283.31L59.82 283.65L59.72 283.99L59.61 284.3L59.49 284.6L59.35 284.88L59.19 285.16L59.02 285.42L58.82 285.66L58.62 285.88L58.39 286.09L58.15 286.26L57.9 286.43L57.63 286.56L57.35 286.68L57.05 286.78L56.73 286.85L56.41 286.9L56.07 286.91L55.72 286.9L55.35 286.86L55.76 287.11L55.94 287.25L56.14 287.38L56.31 287.53L56.5 287.68L56.66 287.83L56.83 288L56.99 288.17L57.14 288.34L57.29 288.52L57.44 288.7L57.57 288.9L57.7 289.09L57.83 289.3L57.94 289.5L58.06 289.72L58.28 290.17L58.37 290.4L58.46 290.64L58.55 290.88L58.63 291.12L58.7 291.38L58.83 291.91L58.88 292.18L58.94 292.45L58.98 292.74L59.06 293.32L59.08 293.62L59.11 293.93L59.12 294.24L59.14 294.88L59.14 295.22L59.13 295.55L59.12 295.89L59.1 296.23L58.31 296.05L57.59 295.9L56.97 295.79L56.41 295.73L55.93 295.7L55.51 295.72L55.17 295.77L54.88 295.86L54.64 295.98L54.46 296.13L54.32 296.31L54.23 296.51L54.18 296.75L54.16 297L54.18 297.28L54.23 297.57L54.3 297.88L54.39 298.2L54.5 298.55L54.61 298.9L54.74 299.26L54.87 299.64L55 300.01L55.13 300.39L55.25 300.78L55.37 301.16L55.45 301.55L55.53 301.93L55.58 302.3L55.6 302.68L55.6 303.04L55.55 303.39L55.47 303.73L55.35 304.05L55.18 304.37L54.96 304.66L54.67 304.92L54.34 305.18L53.94 305.4L53.47 305.61L53.58 305.31L53.68 305L53.75 304.68L53.81 304.36L53.85 304.01L53.88 303.67L53.9 303.32L53.9 302.97L53.86 302.27L53.82 301.91L53.76 301.56L53.71 301.22L53.63 300.88L53.55 300.56L53.45 300.23L53.35 299.93L53.24 299.64L53.12 299.36L52.99 299.1L52.86 298.86L52.72 298.63L52.57 298.43L52.42 298.25L52.26 298.11L52.1 297.98L51.94 297.88L51.77 297.81L51.6 297.78L51.43 297.77L51.26 297.81L51.08 297.88L50.9 297.99L50.73 298.15L50.55 298.33L50.39 298.57L50.21 298.85L50.04 299.17L49.88 299.55L49.72 299.98L50.26 300.34L50.71 300.72L51.09 301.1L51.39 301.49L51.63 301.89L51.79 302.3L51.9 302.72L51.95 303.13L51.95 303.55L51.9 303.97L51.8 304.4L51.67 304.84L51.5 305.28L51.3 305.72L51.08 306.17L50.84 306.61L50.57 307.06L50.3 307.51L50.01 307.96L49.43 308.87L49.15 309.32L48.87 309.77L48.61 310.21L48.36 310.66L48.14 311.1L47.94 311.54L47.78 311.98L47.64 312.42L47.54 312.85L47.5 313.28L47.5 313.7L47.54 314.11L47.65 314.53L47.82 314.93L48.05 315.33L48.35 315.72L48.74 316.1L49.18 316.48L49.72 316.85L49.72 316.78L49.74 316.62L49.76 316.54L49.79 316.46L49.81 316.39L49.85 316.32L49.88 316.25L49.92 316.18L49.97 316.11L50.01 316.04L50.05 315.99L50.16 315.88L50.22 315.83L50.4 315.71L50.46 315.68L50.52 315.66L50.59 315.64L50.65 315.63L50.72 315.62L50.79 315.63L50.84 315.64L50.91 315.65L50.97 315.68L51.04 315.71L51.16 315.81L51.22 315.87L51.26 315.94L51.31 316.01L51.37 316.1L51.41 316.2L51.46 316.31L51.5 316.42L51.54 316.55L51.57 316.7L51.6 316.85L51.31 317.08L51.05 317.28L50.8 317.46L50.56 317.61L50.34 317.73L50.12 317.84L49.92 317.93L49.71 317.99L49.53 318.04L49.35 318.07L49.18 318.07L49.02 318.08L48.85 318.07L48.71 318.05L48.55 318.02L48.4 317.98L48.27 317.94L48.12 317.89L47.98 317.84L47.71 317.73L47.57 317.68L47.43 317.64L47.29 317.6L47.14 317.56L46.99 317.53L46.84 317.51L46.68 317.5L46.52 317.5L46.34 317.51L46.17 317.54L45.98 317.59L45.78 317.66L45.57 317.73L45.36 317.84L45.13 317.97L44.9 318.11L44.64 318.29L44.38 318.49L44.1 318.73L43.94 320.67L43.73 322.57L43.47 324.42L43.17 326.22L42.82 327.97L42.44 329.69L42.02 331.35L41.57 332.99L41.08 334.59L40.57 336.15L40.05 337.69L39.49 339.2L38.91 340.68L38.33 342.15L37.72 343.59L37.12 345.02L36.5 346.42L35.25 349.21L34.02 351.97L33.41 353.35L32.82 354.72L32.24 356.1L31.68 357.48L31.13 358.87L30.61 360.27L30.11 361.68L29.65 363.12L29.21 364.56L28.81 366.03L28.44 367.52L28.12 369.05L27.84 370.59L27.6 372.16L27.42 373.77L27.28 375.42L27.2 377.1L27.18 378.83L27.22 380.6L33.03 376.81L38.66 372.83L44.12 368.65L49.39 364.26L54.51 359.7L59.45 354.95L64.23 350.02L68.86 344.92L73.33 339.66L77.65 334.23L81.83 328.64L85.85 322.91L89.74 317.03L93.5 311.02L97.11 304.86L100.61 298.58L103.97 292.18L107.21 285.67L110.32 279.04L113.33 272.3L116.23 265.46L119.01 258.53L121.69 251.51L124.28 244.4L126.76 237.21L129.14 229.96L131.44 222.63L133.65 215.24L135.78 207.8L137.83 200.31L139.8 192.76L141.7 185.19L143.53 177.57L145.3 169.92L147 162.26L148.65 154.57L150.23 146.87L151.77 139.17L153.27 131.45L154.71 123.75L153.68 123.98L152.66 124.24ZM115.95 70.49L114.01 70.8L112.1 71.24L110.23 71.8L108.4 72.47L106.61 73.24L104.86 74.13L103.17 75.12L101.54 76.2L99.98 77.38L98.48 78.65L97.04 80.01L95.68 81.45L94.41 82.96L93.2 84.54L92.1 86.2L91.09 87.92L90.18 89.7L89.37 91.53L88.65 93.43L88.06 95.36L87.58 97.34L87.23 99.37L89.59 100.07L91.94 100.74L94.28 101.4L96.6 102.03L98.91 102.64L101.2 103.21L103.47 103.75L105.71 104.25L107.95 104.7L110.16 105.09L112.33 105.43L114.49 105.71L116.63 105.93L118.74 106.08L120.82 106.15L122.87 106.15L124.89 106.06L126.88 105.9L128.85 105.63L130.78 105.27L132.67 104.81L134.53 104.26L136.35 103.58L138.14 102.79L139.89 101.89L141.6 100.86L143.27 99.71L144.89 98.43L146.48 97L148.02 95.44L149.52 93.73L150.97 91.88L150 91.42L149.05 90.94L148.14 90.44L147.27 89.91L146.43 89.38L145.62 88.81L144.85 88.24L144.12 87.65L143.4 87.05L142.74 86.45L142.1 85.83L141.49 85.22L140.91 84.6L140.38 83.98L139.87 83.36L139.39 82.75L138.95 82.13L138.53 81.52L138.15 80.93L137.8 80.35L137.49 79.78L137.19 79.23L136.94 78.69L136.72 78.18L136.51 77.68L136.34 77.21L136.21 76.77L136.1 76.35L136.03 75.96L135.98 75.61L135.96 75.28L135.97 75L133.98 73.86L131.98 72.88L129.97 72.07L127.95 71.41L125.93 70.9L123.9 70.54L121.89 70.32L119.89 70.25L117.91 70.3L115.95 70.49Z" id="f3kZRetYYi"></path></defs><g><g><use xlink:href="#f3kZRetYYi" opacity="1" fill="#ffffff" fill-opacity="1"></use><g><use xlink:href="#f3kZRetYYi" opacity="1" fill-opacity="0" stroke="#000000" stroke-width="1" stroke-opacity="0"></use></g></g></g></svg>